# xmcd
#
# Track frame offsets: 
#        150
#        12520
#        23087
#        34202
#        45222
#        57415
#        69135
#        80142
#        92675
#        101250
#        114677
#        127102
#        138822
#        153525
#        164005
#        175705
#        186897
#        199437
#        213110
#        224962
#        236082
#        247210
#        266302
#        284345
#        306312
#        322497
#        336967
#
# Disc length: 4667 seconds
#
# Revision: 6
# Processed by: cddbd v1.5.2PL0 Copyright (c) Steve Scherf et al.
# Submitted via: ExactAudioCopyFreeDBPlugin 1.0
#
DISCID=9f12391b
DTITLE=Various Artist - James Brown's Original Funky Divas
DYEAR=1998
DGENRE=Soul
TTITLE0=Bea Ford and James Brown - You've Got the Power
TTITLE1=Sugar Pie DeSanto - A Little Taste of Soul
TTITLE2=Yvonne Fair - I Found You
TTITLE3=Yvonne Fair - If I Knew
TTITLE4=Yvonne Fair - You Can Make It If You Try
TTITLE5=Yvonne Fair - Straighten Up
TTITLE6=Yvonne Fair - Say Yeah Yeah
TTITLE7=Tammy Montgomery (Tammi Terrell) - I Cried
TTITLE8=Tammy Montgomery (Tammi Terrell) - If You Don't Think
TTITLE9=Anna King - If Somebody Told You
TTITLE10=Anna King - Make Up Your Mind
TTITLE11=Anna King and Bobby Byrd - Baby Baby Baby
TTITLE12=Elsie Mae (aka "T.V. Mama") - All of Me
TTITLE13=Elsie Mae (aka "T.V. Mama") - Whole Lot of Lovin'
TTITLE14=Elsie Mae (aka "T.V. Mama") - Do You Really Want to Rescue Me
TTITLE14=(Part 1)
TTITLE15=The Jewels - This is My Story
TTITLE16=Vicki Anderson - Wide Awake in a Dream
TTITLE17=Vicki Anderson - Baby, Don't You Know
TTITLE18=Marva Whitney - Unwind Yourself
TTITLE19=Marva Whitney - I'm Tired, I'm Tired, I'm Tired (Things Bette
TTITLE19=r Change Before It's Too Late)
TTITLE20=Marva Whitney - What Do I Have to Do to Prove My Love to You
TTITLE21=Marva Whitney - You Got to Have a Job (If You Don't Work, You
TTITLE21=Don't Eat)
TTITLE22=Marva Whitney - It's My Thing (You Can't Tell Me Who to Sock 
TTITLE22=It to) Parts 1 and 2
TTITLE23=Marva Whitney - I Made a Mistake Because It's Only You  (Part
TTITLE23=s 1 and 2)
TTITLE24=Marva Whitney - Things Got to Get Better (Get Together) (remi
TTITLE24=x with Lyn Collins and James Brown)
TTITLE25=Vicki Anderson - Answer to Mother Popcorn (I Got a Mother for
TTITLE25=You)
TTITLE26=Vicki Anderson - I Want to Be in the Land of Milk and Honey
EXTD=
EXTT0=YEAR: 1960
EXTT1=YEAR: 1962
EXTT2=YEAR: 1962
EXTT3=YEAR: 1962
EXTT4=YEAR: 1962
EXTT5=YEAR: 1963
EXTT6=YEAR: 1963
EXTT7=YEAR: 1963
EXTT8=YEAR: 1963
EXTT9=YEAR: 1963
EXTT10=YEAR: 1964
EXTT11=YEAR: 1964
EXTT12=YEAR: 1964
EXTT13=YEAR: 1964
EXTT14=YEAR: 1966
EXTT15=YEAR: 1965
EXTT16=YEAR: 1966
EXTT17=YEAR: 1967
EXTT18=YEAR: 1967
EXTT19=YEAR: 1968
EXTT20=YEAR: 1968
EXTT21=YEAR: 1969
EXTT22=YEAR: 1969
EXTT23=YEAR: 1969
EXTT24=YEAR: 1998
EXTT25=YEAR: 1969
EXTT26=YEAR: 1969
PLAYORDER=
